<?xml version="1.0" standalone="no"?>
<!DOCTYPE svg PUBLIC "-//W3C//DTD SVG 20010904//EN"
 "http://www.w3.org/TR/2001/REC-SVG-20010904/DTD/svg10.dtd">
<svg version="1.0" xmlns="http://www.w3.org/2000/svg"
 width="512.000000pt" height="512.000000pt" viewBox="0 0 512.000000 512.000000"
 preserveAspectRatio="xMidYMid meet">
<metadata>
Created by potrace 1.14, written by Peter Selinger 2001-2017
</metadata>
<g transform="translate(0.000000,512.000000) scale(0.100000,-0.100000)"
fill="#000000" stroke="none">
<path d="M174 4261 c4 -57 8 -107 10 -110 2 -3 7 -28 10 -56 23 -173 58 -241
150 -296 31 -19 56 -38 56 -43 0 -8 -49 -3 -98 10 -21 6 -22 4 -16 -22 19 -83
97 -213 184 -308 78 -86 283 -226 395 -270 29 -12 47 -28 60 -54 11 -20 24
-41 28 -47 4 -5 18 -24 30 -41 72 -101 184 -204 322 -296 100 -67 433 -203
542 -221 15 -3 51 -10 78 -17 58 -14 62 -14 179 -35 49 -8 114 -17 145 -20 31
-3 65 -7 76 -10 54 -11 264 -19 480 -19 257 0 395 7 590 29 50 6 51 7 20 15
-105 26 -320 85 -375 102 -149 46 -501 163 -585 195 -226 85 -340 131 -470
186 -77 32 -144 59 -150 59 -14 0 -105 -12 -138 -18 -36 -7 -231 -7 -282 1
-70 10 -190 38 -199 47 -6 4 -16 8 -23 8 -15 0 -155 61 -150 66 1 2 32 -4 67
-12 79 -19 83 -20 140 -29 25 -4 52 -9 60 -10 104 -19 494 -45 480 -33 -3 3
-45 27 -95 53 -173 92 -398 224 -403 237 -2 4 -7 8 -12 8 -8 0 -149 90 -175
112 -5 4 -60 45 -121 91 -61 45 -129 98 -151 117 -23 19 -65 55 -94 80 -81 67
-278 265 -350 351 -96 113 -98 116 -162 214 l-59 90 6 -104z"/>
<path d="M216 4318 c62 -122 262 -352 434 -502 68 -58 347 -266 358 -266 6 0
12 -4 14 -8 7 -19 298 -190 483 -284 223 -114 582 -268 810 -348 134 -47 406
-136 440 -145 17 -5 35 -10 40 -11 112 -36 635 -174 635 -167 0 29 -266 311
-390 414 -36 30 -67 57 -70 60 -14 16 -203 146 -263 181 -68 39 -200 108 -204
105 -1 -1 3 -25 8 -52 13 -69 18 -151 9 -166 -13 -20 -27 -2 -50 64 -34 97
-77 149 -151 184 -35 17 -214 92 -398 168 -884 362 -1502 650 -1678 781 -42
32 -47 30 -27 -8z"/>
<path d="M1071 3472 c13 -11 74 -52 134 -93 263 -178 606 -358 950 -498 72
-30 144 -59 160 -66 38 -17 481 -164 595 -199 410 -124 1026 -284 1280 -332
14 -3 88 -18 165 -34 218 -45 346 -69 400 -76 28 -3 52 -8 55 -9 3 -2 26 -6
50 -10 25 -3 53 -8 62 -11 30 -9 39 5 23 36 -25 48 -107 94 -189 104 -30 4
-185 31 -236 41 -33 6 -128 25 -160 31 -14 3 -59 12 -100 20 -41 9 -84 17 -95
20 -11 2 -43 8 -71 14 -28 6 -61 13 -75 15 -13 3 -33 7 -44 10 -27 6 -155 34
-180 39 -11 3 -87 21 -170 41 -82 20 -157 38 -165 40 -35 7 -381 98 -565 149
-144 40 -321 94 -445 137 -63 21 -119 40 -125 42 -20 6 -130 48 -150 57 -11 5
-45 19 -75 30 -30 12 -64 26 -75 31 -22 9 -246 107 -310 136 -133 59 -442 220
-517 269 -21 13 -40 24 -44 24 -3 0 -26 14 -51 30 -49 33 -69 41 -32 12z"/>
<path d="M3290 2873 c0 -5 8 -18 18 -29 47 -52 114 -153 138 -209 25 -57 31
-64 63 -71 20 -4 41 -8 46 -10 27 -7 338 -78 399 -91 37 -8 70 -12 73 -9 3 2
-10 42 -28 87 -25 59 -48 96 -84 134 -78 80 -168 137 -239 150 -35 7 -37 6
-28 -11 6 -11 24 -31 40 -46 35 -33 92 -116 92 -135 0 -17 -15 -16 -58 4 -29
13 -165 105 -238 160 -10 8 -31 20 -90 53 -38 22 -104 36 -104 23z"/>
<path d="M3341 2400 c-208 -44 -300 -54 -482 -55 -116 0 -133 -2 -118 -13 24
-16 145 -59 189 -67 19 -3 36 -7 39 -9 6 -4 124 -15 181 -18 68 -2 243 31 324
62 18 6 28 5 36 -5 39 -47 -160 -227 -236 -212 -30 5 -32 -9 -1 -19 85 -27
219 10 439 124 105 54 151 73 159 65 7 -7 -6 -25 -46 -59 -31 -27 -71 -61 -88
-76 -47 -41 -15 -36 100 16 129 58 256 95 348 102 22 1 47 3 55 4 8 1 -21 10
-65 21 -44 11 -106 27 -138 35 -32 8 -66 17 -75 19 -9 2 -57 13 -107 25 -49
12 -98 24 -108 26 -10 2 -27 6 -37 9 -10 3 -27 8 -37 10 -10 2 -54 13 -98 24
-44 11 -84 20 -90 20 -5 -1 -70 -14 -144 -29z"/>
<path d="M1995 700 c3 -5 8 -10 11 -10 2 0 4 5 4 10 0 6 -5 10 -11 10 -5 0 -7
-4 -4 -10z"/>
<path d="M2876 668 c-9 -21 -16 -45 -16 -54 0 -19 10 -13 14 8 1 7 8 23 15 36
7 13 10 28 8 35 -3 7 -12 -5 -21 -25z"/>
<path d="M3470 230 c-9 -6 -10 -10 -3 -10 6 0 15 5 18 10 8 12 4 12 -15 0z"/>
<path d="M2476 15 c-4 -11 1 -15 19 -15 18 0 23 4 19 15 -8 19 -30 19 -38 0z"/>
<path d="M4241 14 c0 -11 3 -14 6 -6 3 7 2 16 -1 19 -3 4 -6 -2 -5 -13z"/>
<path d="M5111 14 c0 -11 3 -14 6 -6 3 7 2 16 -1 19 -3 4 -6 -2 -5 -13z"/>
<path d="M2815 10 c-3 -5 -1 -10 4 -10 6 0 11 5 11 10 0 6 -2 10 -4 10 -3 0
-8 -4 -11 -10z"/>
<path d="M3724 9 c-3 -5 12 -9 32 -9 21 0 34 3 31 6 -11 11 -57 13 -63 3z"/>
</g>
</svg>
